<svg width="32" height="32" viewBox="0 0 32 32" fill="none" xmlns="http://www.w3.org/2000/svg">
<path d="M9.33333 21.3332C9.86377 21.3332 10.3725 21.1225 10.7475 20.7474C11.1226 20.3723 11.3333 19.8636 11.3333 19.3332C11.3398 19.2667 11.3398 19.1997 11.3333 19.1332L15.0533 15.4132H15.36H15.6667L17.8133 17.5598C17.8133 17.5598 17.8133 17.6265 17.8133 17.6665C17.8133 18.1969 18.024 18.7056 18.3991 19.0807C18.7742 19.4558 19.2829 19.6665 19.8133 19.6665C20.3438 19.6665 20.8525 19.4558 21.2275 19.0807C21.6026 18.7056 21.8133 18.1969 21.8133 17.6665V17.5598L26.6667 12.6665C27.0622 12.6665 27.4489 12.5492 27.7778 12.3294C28.1067 12.1097 28.363 11.7973 28.5144 11.4319C28.6658 11.0664 28.7054 10.6643 28.6282 10.2763C28.5511 9.88836 28.3606 9.532 28.0809 9.25229C27.8012 8.97259 27.4448 8.7821 27.0568 8.70493C26.6689 8.62776 26.2668 8.66737 25.9013 8.81874C25.5358 8.97012 25.2235 9.22647 25.0037 9.55536C24.784 9.88426 24.6667 10.2709 24.6667 10.6665C24.6602 10.733 24.6602 10.8 24.6667 10.8665L19.8533 15.6798H19.64L17.3333 13.3332C17.3333 12.8027 17.1226 12.294 16.7475 11.919C16.3725 11.5439 15.8638 11.3332 15.3333 11.3332C14.8029 11.3332 14.2942 11.5439 13.9191 11.919C13.544 12.294 13.3333 12.8027 13.3333 13.3332L9.33333 17.3332C8.8029 17.3332 8.29419 17.5439 7.91912 17.919C7.54405 18.294 7.33333 18.8027 7.33333 19.3332C7.33333 19.8636 7.54405 20.3723 7.91912 20.7474C8.29419 21.1225 8.8029 21.3332 9.33333 21.3332ZM27.3333 26.6665H4.66667V3.99984C4.66667 3.64622 4.52619 3.30708 4.27614 3.05703C4.02609 2.80698 3.68696 2.6665 3.33333 2.6665C2.97971 2.6665 2.64057 2.80698 2.39052 3.05703C2.14048 3.30708 2 3.64622 2 3.99984V27.9998C2 28.3535 2.14048 28.6926 2.39052 28.9426C2.64057 29.1927 2.97971 29.3332 3.33333 29.3332H27.3333C27.687 29.3332 28.0261 29.1927 28.2761 28.9426C28.5262 28.6926 28.6667 28.3535 28.6667 27.9998C28.6667 27.6462 28.5262 27.3071 28.2761 27.057C28.0261 26.807 27.687 26.6665 27.3333 26.6665Z" fill="#A53DFF"/>
</svg>
