<svg xmlns="http://www.w3.org/2000/svg" xmlns:xlink="http://www.w3.org/1999/xlink" width="50" zoomAndPan="magnify" viewBox="0 0 37.5 37.499999" height="50" preserveAspectRatio="xMidYMid meet" version="1.0"><path fill="#a43dff" d="M 24.886719 14.179688 C 24.886719 14.101562 24.882812 14.023438 24.882812 13.949219 C 24.671875 8.714844 19.960938 4.945312 15.210938 4.109375 C 8.691406 2.957031 0.03125 7.265625 1.546875 14.949219 C 2.359375 19.058594 5.273438 22.789062 9.402344 23.929688 C 10.539062 24.246094 11.824219 24.449219 13.007812 24.449219 C 15.480469 24.449219 17.433594 23.160156 19.707031 24.804688 C 20.375 25.285156 21.0625 26.972656 22.117188 26.601562 C 22.886719 26.328125 23.050781 24.765625 23.101562 24.113281 C 23.371094 20.765625 24.945312 17.546875 24.886719 14.179688 Z M 24.886719 14.179688 " fill-opacity="1" fill-rule="nonzero"/><path fill="#ffffff" d="M 6.027344 14.230469 C 6.027344 14.429688 6.066406 14.625 6.144531 14.8125 C 6.21875 15 6.332031 15.164062 6.472656 15.304688 C 6.617188 15.449219 6.78125 15.558594 6.964844 15.636719 C 7.152344 15.714844 7.347656 15.75 7.550781 15.75 C 7.75 15.75 7.945312 15.714844 8.132812 15.636719 C 8.316406 15.558594 8.484375 15.449219 8.625 15.304688 C 8.769531 15.164062 8.878906 15 8.957031 14.8125 C 9.03125 14.625 9.070312 14.429688 9.070312 14.230469 C 9.070312 14.027344 9.03125 13.832031 8.957031 13.648438 C 8.878906 13.460938 8.769531 13.296875 8.625 13.152344 C 8.484375 13.011719 8.316406 12.902344 8.132812 12.824219 C 7.945312 12.746094 7.75 12.707031 7.550781 12.707031 C 7.347656 12.707031 7.152344 12.746094 6.964844 12.824219 C 6.78125 12.902344 6.617188 13.011719 6.472656 13.152344 C 6.332031 13.296875 6.21875 13.460938 6.144531 13.648438 C 6.066406 13.832031 6.027344 14.027344 6.027344 14.230469 Z M 6.027344 14.230469 " fill-opacity="1" fill-rule="nonzero"/><path fill="#ffffff" d="M 11.402344 14.230469 C 11.402344 14.429688 11.441406 14.625 11.519531 14.8125 C 11.597656 15 11.707031 15.164062 11.847656 15.304688 C 11.992188 15.449219 12.15625 15.558594 12.34375 15.636719 C 12.53125 15.714844 12.722656 15.75 12.925781 15.75 C 13.128906 15.75 13.320312 15.714844 13.507812 15.636719 C 13.695312 15.558594 13.859375 15.449219 14 15.304688 C 14.144531 15.164062 14.253906 15 14.332031 14.8125 C 14.410156 14.625 14.449219 14.429688 14.449219 14.230469 C 14.449219 14.027344 14.410156 13.832031 14.332031 13.648438 C 14.253906 13.460938 14.144531 13.296875 14 13.152344 C 13.859375 13.011719 13.695312 12.902344 13.507812 12.824219 C 13.320312 12.746094 13.128906 12.707031 12.925781 12.707031 C 12.722656 12.707031 12.53125 12.746094 12.34375 12.824219 C 12.15625 12.902344 11.992188 13.011719 11.847656 13.152344 C 11.707031 13.296875 11.597656 13.460938 11.519531 13.648438 C 11.441406 13.832031 11.402344 14.027344 11.402344 14.230469 Z M 11.402344 14.230469 " fill-opacity="1" fill-rule="nonzero"/><path fill="#ffffff" d="M 16.496094 14.230469 C 16.496094 14.429688 16.535156 14.625 16.609375 14.8125 C 16.6875 15 16.796875 15.164062 16.941406 15.304688 C 17.082031 15.449219 17.246094 15.558594 17.433594 15.636719 C 17.621094 15.714844 17.816406 15.75 18.015625 15.75 C 18.21875 15.75 18.414062 15.714844 18.597656 15.636719 C 18.785156 15.558594 18.949219 15.449219 19.09375 15.304688 C 19.234375 15.164062 19.34375 15 19.421875 14.8125 C 19.5 14.625 19.539062 14.429688 19.539062 14.230469 C 19.539062 14.027344 19.5 13.832031 19.421875 13.648438 C 19.34375 13.460938 19.234375 13.296875 19.09375 13.152344 C 18.949219 13.011719 18.785156 12.902344 18.597656 12.824219 C 18.414062 12.746094 18.21875 12.707031 18.015625 12.707031 C 17.816406 12.707031 17.621094 12.746094 17.433594 12.824219 C 17.246094 12.902344 17.082031 13.011719 16.941406 13.152344 C 16.796875 13.296875 16.6875 13.460938 16.609375 13.648438 C 16.535156 13.832031 16.496094 14.027344 16.496094 14.230469 Z M 16.496094 14.230469 " fill-opacity="1" fill-rule="nonzero"/><path fill="#481574" d="M 12.132812 24.214844 C 12.132812 24.136719 12.136719 24.058594 12.140625 23.984375 C 12.347656 18.75 17.058594 14.980469 21.808594 14.144531 C 28.332031 12.992188 36.988281 17.300781 35.472656 24.984375 C 34.660156 29.09375 31.746094 32.824219 27.617188 33.964844 C 26.480469 34.28125 25.195312 34.484375 24.011719 34.484375 C 21.539062 34.484375 19.585938 33.199219 17.3125 34.839844 C 16.648438 35.320312 15.957031 37.007812 14.902344 36.636719 C 14.132812 36.363281 13.96875 34.800781 13.917969 34.148438 C 13.648438 30.800781 12.074219 27.582031 12.132812 24.214844 Z M 12.132812 24.214844 " fill-opacity="1" fill-rule="nonzero"/><path fill="#ffffff" d="M 27.949219 24.265625 C 27.949219 24.464844 27.988281 24.660156 28.066406 24.847656 C 28.140625 25.035156 28.25 25.199219 28.394531 25.339844 C 28.539062 25.484375 28.703125 25.59375 28.886719 25.671875 C 29.074219 25.75 29.269531 25.785156 29.472656 25.785156 C 29.671875 25.785156 29.867188 25.75 30.054688 25.671875 C 30.238281 25.59375 30.40625 25.484375 30.546875 25.339844 C 30.691406 25.199219 30.800781 25.035156 30.878906 24.847656 C 30.953125 24.660156 30.992188 24.464844 30.992188 24.265625 C 30.992188 24.0625 30.953125 23.867188 30.878906 23.683594 C 30.800781 23.496094 30.691406 23.332031 30.546875 23.1875 C 30.40625 23.046875 30.238281 22.9375 30.054688 22.859375 C 29.867188 22.78125 29.671875 22.742188 29.472656 22.742188 C 29.269531 22.742188 29.074219 22.78125 28.886719 22.859375 C 28.703125 22.9375 28.539062 23.046875 28.394531 23.1875 C 28.25 23.332031 28.140625 23.496094 28.066406 23.683594 C 27.988281 23.867188 27.949219 24.0625 27.949219 24.265625 Z M 27.949219 24.265625 " fill-opacity="1" fill-rule="nonzero"/><path fill="#ffffff" d="M 22.574219 24.265625 C 22.574219 24.46875 22.609375 24.660156 22.6875 24.847656 C 22.765625 25.035156 22.875 25.199219 23.019531 25.339844 C 23.160156 25.484375 23.324219 25.59375 23.511719 25.671875 C 23.699219 25.75 23.894531 25.785156 24.09375 25.785156 C 24.296875 25.785156 24.492188 25.75 24.675781 25.671875 C 24.863281 25.59375 25.027344 25.484375 25.171875 25.339844 C 25.3125 25.199219 25.421875 25.035156 25.5 24.847656 C 25.578125 24.660156 25.617188 24.46875 25.617188 24.265625 C 25.617188 24.0625 25.578125 23.867188 25.5 23.683594 C 25.421875 23.496094 25.3125 23.332031 25.171875 23.1875 C 25.027344 23.046875 24.863281 22.9375 24.675781 22.859375 C 24.492188 22.78125 24.296875 22.742188 24.09375 22.742188 C 23.894531 22.742188 23.699219 22.78125 23.511719 22.859375 C 23.324219 22.9375 23.160156 23.046875 23.019531 23.1875 C 22.875 23.332031 22.765625 23.496094 22.6875 23.683594 C 22.609375 23.867188 22.574219 24.0625 22.574219 24.265625 Z M 22.574219 24.265625 " fill-opacity="1" fill-rule="nonzero"/><path fill="#ffffff" d="M 17.480469 24.265625 C 17.480469 24.464844 17.519531 24.660156 17.597656 24.847656 C 17.675781 25.035156 17.785156 25.199219 17.925781 25.339844 C 18.070312 25.484375 18.234375 25.59375 18.421875 25.671875 C 18.605469 25.75 18.800781 25.785156 19.003906 25.785156 C 19.207031 25.785156 19.398438 25.75 19.585938 25.671875 C 19.773438 25.59375 19.9375 25.484375 20.078125 25.339844 C 20.222656 25.199219 20.332031 25.035156 20.410156 24.847656 C 20.488281 24.660156 20.523438 24.464844 20.523438 24.265625 C 20.523438 24.0625 20.488281 23.867188 20.410156 23.683594 C 20.332031 23.496094 20.222656 23.332031 20.078125 23.1875 C 19.9375 23.046875 19.773438 22.9375 19.585938 22.859375 C 19.398438 22.78125 19.207031 22.742188 19.003906 22.742188 C 18.800781 22.742188 18.605469 22.78125 18.421875 22.859375 C 18.234375 22.9375 18.070312 23.046875 17.925781 23.1875 C 17.785156 23.332031 17.675781 23.496094 17.597656 23.683594 C 17.519531 23.867188 17.480469 24.0625 17.480469 24.265625 Z M 17.480469 24.265625 " fill-opacity="1" fill-rule="nonzero"/></svg>