<svg width="30" height="38" viewBox="0 0 30 38" fill="none" xmlns="http://www.w3.org/2000/svg">
<path d="M18.3334 2.78256V9.6668C18.3334 10.6002 18.3334 11.0669 18.5151 11.4234C18.6749 11.7371 18.9298 11.992 19.2434 12.1518C19.6 12.3335 20.0667 12.3335 21.0001 12.3335H27.8843M21.6667 20.6667H8.33342M21.6667 27.3333H8.33342M11.6667 14H8.33342M18.3334 2.33334H9.66675C6.86649 2.33334 5.46635 2.33334 4.3968 2.87831C3.45599 3.35768 2.69108 4.12258 2.21172 5.06339C1.66675 6.13295 1.66675 7.53308 1.66675 10.3333V27.6667C1.66675 30.4669 1.66675 31.8671 2.21172 32.9366C2.69108 33.8774 3.45599 34.6423 4.3968 35.1217C5.46635 35.6667 6.86649 35.6667 9.66675 35.6667H20.3334C23.1337 35.6667 24.5338 35.6667 25.6034 35.1217C26.5442 34.6423 27.3091 33.8774 27.7884 32.9366C28.3334 31.8671 28.3334 30.4669 28.3334 27.6667V12.3333L18.3334 2.33334Z" stroke="#6941C6" stroke-width="3.33333" stroke-linecap="round" stroke-linejoin="round"/>
</svg>
